<svg width="1200" height="760" viewBox="0 0 1200 760" fill="none" xmlns="http://www.w3.org/2000/svg">
  <defs>
    <linearGradient id="bg" x1="0" y1="0" x2="1200" y2="760" gradientUnits="userSpaceOnUse">
      <stop stop-color="#F6EDFC"/>
      <stop offset="1" stop-color="#E4D2F6"/>
    </linearGradient>
    <linearGradient id="line" x1="390" y1="170" x2="780" y2="560" gradientUnits="userSpaceOnUse">
      <stop stop-color="#8B5EB2"/>
      <stop offset="1" stop-color="#5E3D80"/>
    </linearGradient>
  </defs>
  <rect width="1200" height="760" fill="url(#bg)"/>
  <circle cx="183" cy="128" r="90" fill="#EEDFFE"/>
  <circle cx="1022" cy="615" r="130" fill="#E8D7FA"/>
  <path d="M534 216C580 206 634 227 667 266C700 305 712 358 700 408C688 456 656 495 611 520C577 539 536 546 499 539" stroke="url(#line)" stroke-width="12" stroke-linecap="round"/>
  <path d="M503 277C480 309 472 342 480 377C488 412 510 441 541 457" stroke="#7B57A2" stroke-width="10" stroke-linecap="round"/>
  <path d="M608 339C626 349 634 368 629 387C624 406 606 420 586 420" stroke="#5E3D80" stroke-width="9" stroke-linecap="round"/>
  <path d="M548 472C568 482 592 484 613 478" stroke="#5E3D80" stroke-width="8" stroke-linecap="round"/>
  <text x="90" y="116" fill="#5E3D80" font-size="46" font-family="Georgia, serif" font-weight="700">Skin Treatments</text>
  <text x="92" y="162" fill="#6B5682" font-size="24" font-family="Verdana, sans-serif">Clear, radiant, healthy skin care.</text>
</svg>
